# xmcd
#
# Track frame offsets: 
#        150
#        19687
#        35620
#        48947
#        61910
#        73475
#        82467
#        103967
#        116142
#        133745
#        148772
#        166345
#        180527
#        196385
#        209952
#        219595
#        232495
#
# Disc length: 3569 seconds
#
# Revision: 3
# Processed by: cddbd v1.5.2PL0 Copyright (c) Steve Scherf et al.
# Submitted via: ExactAudioCopy v0.95b2
#
DISCID=1e0def11
DTITLE=Reverend Gary Davis - Pure Religion and Bad Company
DYEAR=1957
DGENRE=
TTITLE0=Pure Religion
TTITLE1=Mountain Jack
TTITLE2=Right Now
TTITLE3=Buck Dance
TTITLE4=Candy Man
TTITLE5=Devil's Dream
TTITLE6=Moon Goes Down
TTITLE7=Cocaine Blues
TTITLE8=Runnin' To The Judgement
TTITLE9=Hesitation Blues
TTITLE10=Bad Company
TTITLE11=I Didn't Want To Join The Band
TTITLE12=Evening Sun Goes Down
TTITLE13=Seven Sisters
TTITLE14=My Heart Is Fixed
TTITLE15=Time Is Drawing Near
TTITLE16=Crucifixion
EXTD=
EXTT0=
EXTT1=
EXTT2=
EXTT3=
EXTT4=
EXTT5=
EXTT6=
EXTT7=
EXTT8=
EXTT9=
EXTT10=
EXTT11=
EXTT12=
EXTT13=
EXTT14=
EXTT15=
EXTT16=
PLAYORDER=
